<?xml version="1.0" standalone="no"?>
<!DOCTYPE svg PUBLIC "-//W3C//DTD SVG 20010904//EN"
 "http://www.w3.org/TR/2001/REC-SVG-20010904/DTD/svg10.dtd">
<svg version="1.0" xmlns="http://www.w3.org/2000/svg"
 width="1360.000000pt" height="1360.000000pt" viewBox="0 0 1360.000000 1360.000000"
 preserveAspectRatio="xMidYMid meet">
<metadata>
Created by potrace 1.14, written by Peter Selinger 2001-2017
</metadata>
<g transform="translate(0.000000,1360.000000) scale(0.100000,-0.100000)"
fill="#000000" stroke="none">
<path d="M3455 12325 c-122 -23 -203 -58 -289 -124 -108 -84 -178 -208 -219
-386 -20 -87 -20 -126 -24 -1132 l-4 -1043 50 0 c47 0 53 -3 71 -32 19 -31 20
-52 20 -346 l0 -314 -34 -34 c-19 -19 -44 -34 -57 -34 -13 0 -29 -4 -35 -8
-19 -12 -23 -1194 -15 -4117 8 -2701 8 -2751 28 -2830 39 -154 96 -260 190
-345 64 -58 118 -88 218 -120 98 -32 315 -38 580 -16 110 9 299 23 420 32 238
16 346 25 640 49 195 16 243 20 665 55 135 11 326 23 425 27 l180 6 85 -43
c77 -39 83 -43 65 -56 -10 -8 -16 -16 -13 -20 17 -17 265 -14 528 5 157 12
409 30 560 41 304 23 692 52 990 75 107 8 402 31 655 50 619 47 819 64 890 75
33 6 63 10 66 10 4 0 9 9 12 19 2 11 27 31 53 44 116 59 214 156 273 267 52
99 71 188 80 380 13 260 14 8897 1 9041 -18 205 -74 335 -194 446 -133 125
-263 162 -636 183 -142 8 -410 24 -585 35 -38 3 -155 9 -260 16 -104 6 -253
15 -330 19 -290 18 -706 42 -875 50 -96 4 -258 13 -360 19 -248 14 -605 19
-712 10 -89 -8 -175 -32 -246 -68 -45 -23 0 -24 -547 9 -88 5 -243 14 -345 20
-173 9 -268 14 -705 40 -93 5 -298 17 -455 25 -157 9 -346 20 -420 25 -175 13
-298 11 -385 -5z m3095 -125 c0 -5 -7 -10 -16 -10 -20 0 -70 -28 -98 -55 -12
-11 -32 -29 -46 -40 -33 -25 -100 -114 -100 -131 0 -7 -5 -16 -11 -20 -12 -7
-2 57 10 66 4 3 17 21 28 40 25 40 85 96 113 105 11 4 20 11 20 16 0 6 5 7 10
4 6 -3 22 3 36 14 28 22 54 27 54 11z m65 -40 c-3 -5 -15 -10 -26 -10 -10 0
-19 5 -19 10 0 6 12 10 26 10 14 0 23 -4 19 -10z m-66 -26 c-6 -8 -17 -14 -24
-14 -23 0 -160 -130 -171 -162 -3 -10 -10 -18 -15 -18 -5 0 -9 -7 -9 -15 0 -8
-4 -15 -10 -15 -12 0 -14 37 -2 42 4 2 16 20 26 41 25 49 101 123 141 138 16
6 37 14 45 19 21 11 33 1 19 -16z m-239 -250 c0 -8 -4 -12 -10 -9 -5 3 -10 10
-10 16 0 5 5 9 10 9 6 0 10 -7 10 -16z m2650 -4 c118 -6 289 -15 380 -20 91
-5 168 -10 173 -10 4 0 7 -286 7 -635 0 -615 1 -635 19 -635 10 0 24 -6 30
-14 17 -20 3 -46 -25 -46 l-24 0 0 -713 c0 -870 -11 -1738 -21 -1731 -4 2
-198 5 -431 5 -233 1 -425 5 -428 9 -3 5 -501 10 -1107 12 -606 2 -1105 7
-1110 11 -4 5 -9 159 -11 344 -3 334 0 375 31 356 6 -4 8 0 4 10 -10 26 10 30
27 5 13 -18 16 -19 22 -5 3 9 3 21 -1 27 -3 5 -1 10 5 10 6 0 16 -11 22 -25 9
-19 14 -22 25 -14 9 9 13 8 13 0 0 -7 27 -11 83 -11 45 1 277 -1 515 -3 429
-4 433 -3 457 17 14 12 25 27 25 34 0 7 5 12 11 12 6 0 8 -8 4 -19 -3 -11 0
-21 9 -24 15 -6 29 6 39 33 3 9 6 6 6 -9 1 -13 -6 -29 -15 -35 -9 -7 -12 -18
-8 -29 5 -14 19 -17 78 -17 212 0 795 -11 823 -15 17 -3 34 -1 38 5 10 16 6
1321 -5 1339 -8 14 -9 14 -15 -1 -4 -10 -11 -18 -16 -18 -15 0 -10 40 5 46 10
4 14 29 13 102 0 53 1 140 1 192 2 130 2 130 -8 130 -5 0 -16 3 -26 7 -15 5
-16 2 -11 -28 5 -23 4 -29 -2 -19 -14 20 -22 9 -28 -39 -3 -22 -9 -38 -14 -35
-5 3 -9 2 -9 -3 0 -4 -3 -19 -7 -33 l-6 -25 21 25 c27 31 27 24 2 -26 -11 -22
-19 -31 -20 -21 0 21 -30 23 -30 1 0 -23 -24 -11 -28 14 -2 15 -10 22 -26 22
-13 0 -23 6 -23 15 0 8 4 15 9 15 4 0 8 -4 8 -10 0 -5 7 -10 15 -10 28 0 48
71 24 86 -6 4 -9 -1 -8 -12 5 -29 -9 -44 -42 -44 -16 0 -29 -4 -29 -10 0 -5
-9 -10 -19 -10 -11 0 -21 -4 -23 -8 -5 -13 -58 -24 -58 -12 0 9 21 15 43 11 4
0 7 3 7 8 0 5 8 12 18 14 13 4 11 5 -5 6 -15 1 -23 8 -24 19 0 13 -2 12 -9 -5
-13 -31 -50 -20 -51 16 l-1 26 -11 -27 c-6 -15 -16 -29 -23 -32 -15 -6 -37 26
-49 69 l-9 30 -3 -30 c-2 -16 -6 -46 -9 -65 -6 -35 -6 -35 -17 -10 -10 25 -10
25 -14 3 -5 -24 -22 -32 -24 -10 -2 22 3 52 9 59 11 11 2 149 -9 142 -5 -3 -9
4 -9 16 0 12 4 18 10 15 6 -4 17 -2 25 5 16 13 55 -3 55 -23 0 -8 4 -7 11 3 8
11 9 7 4 -18 -5 -24 -3 -33 10 -38 12 -5 15 -14 11 -33 -5 -22 -5 -23 5 -8 6
11 8 32 5 48 -3 18 -2 28 4 24 5 -3 16 8 25 25 23 44 47 36 58 -18 l8 -42 28
16 c26 15 30 15 60 -1 33 -16 33 -16 26 7 -3 13 -3 18 2 12 4 -6 19 -17 31
-23 13 -7 21 -15 18 -18 -3 -4 -1 -12 6 -20 9 -11 14 -8 29 17 16 26 22 29 39
20 22 -12 27 -1 8 18 -9 9 -7 12 10 12 17 0 22 -6 22 -25 0 -14 4 -25 10 -25
6 0 10 232 10 644 0 354 3 652 7 662 11 30 24 35 78 29 28 -3 147 -10 265 -15z
m-5254 -102 c-23 -24 -52 -56 -65 -73 l-22 -30 18 34 c19 35 89 111 102 111 5
0 -10 -19 -33 -42z m4884 2 c0 -5 -4 -10 -10 -10 -5 0 -10 5 -10 10 0 6 5 10
10 10 6 0 10 -4 10 -10z m-50 -55 c-7 -8 -17 -15 -22 -15 -6 0 -5 7 2 15 7 8
17 15 22 15 6 0 5 -7 -2 -15z m-1381 -41 c21 -26 19 -46 -7 -76 -19 -22 -26
-22 -46 -2 -22 21 -21 80 2 93 25 15 28 14 51 -15z m-90 -36 c-1 -49 -2 -51
-9 -18 -4 19 -11 43 -15 53 -5 12 -3 17 9 17 13 0 16 -10 15 -52z m219 20 c16
-35 1 -78 -28 -78 -29 0 -52 55 -37 87 14 31 48 27 65 -9z m84 15 c24 -21 23
-65 -2 -88 -19 -17 -21 -17 -40 0 -25 23 -26 73 -2 91 22 17 22 17 44 -3z
m1135 2 c-4 -8 -2 -17 3 -20 16 -10 39 -65 29 -71 -5 -3 -9 0 -9 5 0 6 -10 21
-21 32 -17 17 -23 19 -30 8 -7 -11 -9 -10 -9 4 0 9 4 17 9 17 5 0 13 9 16 20
3 11 9 20 12 20 3 0 3 -7 0 -15z m43 -5 c0 -5 -4 -10 -10 -10 -5 0 -10 5 -10
10 0 6 5 10 10 10 6 0 10 -4 10 -10z m-1850 -35 c0 -8 -4 -15 -10 -15 -5 0
-10 7 -10 15 0 8 5 15 10 15 6 0 10 -7 10 -15z m1867 -17 c-3 -7 -5 -2 -5 12
0 14 2 19 5 13 2 -7 2 -19 0 -25z m-4960 -20 c-3 -8 -6 -5 -6 6 -1 11 2 17 5
13 3 -3 4 -12 1 -19z m408 -31 c60 -60 60 -153 -1 -206 -39 -35 -59 -38 -109
-17 -83 35 -101 161 -33 234 16 16 33 22 66 22 37 0 50 -6 77 -33z m4425 14
c0 -6 -4 -13 -10 -16 -5 -3 -10 1 -10 9 0 9 5 16 10 16 6 0 10 -4 10 -9z m75
-49 c-5 -14 -9 -13 -20 8 -21 38 -18 53 6 29 13 -13 18 -27 14 -37z m1345 33
c17 -9 30 -22 30 -30 0 -17 -60 -105 -72 -105 -8 0 -78 100 -78 112 0 11 52
37 73 38 10 0 31 -7 47 -15z m-1453 -27 c-3 -8 -6 -5 -6 6 -1 11 2 17 5 13 3
-3 4 -12 1 -19z m1761 10 c7 -7 12 -39 12 -75 0 -70 -9 -81 -53 -64 -25 10
-27 15 -27 69 0 59 11 82 40 82 9 0 21 -5 28 -12z m-1708 -19 c0 -6 -4 -7 -10
-4 -5 3 -10 11 -10 16 0 6 5 7 10 4 6 -3 10 -11 10 -16z m1570 -49 l0 -70 -54
0 c-30 0 -58 4 -61 10 -6 10 93 130 107 130 5 0 8 -31 8 -70z m-1600 40 c0 -5
-5 -10 -11 -10 -5 0 -7 5 -4 10 3 6 8 10 11 10 2 0 4 -4 4 -10z m157 -22 c-3
-8 -6 -5 -6 6 -1 11 2 17 5 13 3 -3 4 -12 1 -19z m-186 -15 c15 -40 6 -45 -13
-7 -10 19 -13 34 -8 34 6 0 15 -12 21 -27z m39 -44 c0 -6 -4 -7 -10 -4 -5 3
-10 11 -10 16 0 6 5 7 10 4 6 -3 10 -11 10 -16z m-44 -26 c-8 -9 -37 18 -30
28 3 5 12 2 21 -6 8 -9 13 -19 9 -22z m-112 -49 c3 -8 2 -12 -4 -9 -6 3 -10
10 -10 16 0 14 7 11 14 -7z m-24 -34 c0 -5 -5 -10 -11 -10 -5 0 -7 5 -4 10 3
6 8 10 11 10 2 0 4 -4 4 -10z m-69 -113 c-8 -8 -11 -7 -11 4 0 20 13 34 18 19
3 -7 -1 -17 -7 -23z m115 6 c-7 -7 -26 7 -26 19 0 6 6 6 15 -2 9 -7 13 -15 11
-17z m-56 -3 c0 -5 -4 -10 -10 -10 -5 0 -10 5 -10 10 0 6 5 10 10 10 6 0 10
-4 10 -10z m30 -45 c0 -8 -4 -15 -10 -15 -5 0 -10 7 -10 15 0 8 5 15 10 15 6
0 10 -7 10 -15z m-168 -47 c-7 -7 -12 -8 -12 -2 0 14 12 26 19 19 2 -3 -1 -11
-7 -17z m38 -18 c0 -5 -4 -10 -10 -10 -5 0 -10 5 -10 10 0 6 5 10 10 10 6 0
10 -4 10 -10z m-30 -35 c0 -8 -4 -15 -10 -15 -5 0 -10 7 -10 15 0 8 5 15 10
15 6 0 10 -7 10 -15z m-50 -15 c0 -5 -2 -10 -4 -10 -3 0 -8 5 -11 10 -3 6 -1
10 4 10 6 0 11 -4 11 -10z m-45 -59 c-3 -6 -11 -11 -16 -11 -5 0 -4 6 3 14 14
16 24 13 13 -3z m45 -1 c0 -5 -4 -10 -10 -10 -5 0 -10 5 -10 10 0 6 5 10 10
10 6 0 10 -4 10 -10z m-100 -74 c0 -2 -7 -9 -15 -16 -13 -11 -14 -10 -9 4 5
14 24 23 24 12z m24 -20 c-6 -16 -24 -23 -24 -8 0 10 22 33 27 28 2 -2 1 -11
-3 -20z m33 -32 c-3 -3 -12 -4 -19 -1 -8 3 -5 6 6 6 11 1 17 -2 13 -5z m-140
-116 c-3 -8 -6 -5 -6 6 -1 11 2 17 5 13 3 -3 4 -12 1 -19z m-31 -2 c15 -16 19
-36 7 -36 -5 0 -13 11 -20 25 -13 28 -8 32 13 11z m281 -38 c-3 -7 -5 -2 -5
12 0 14 2 19 5 13 2 -7 2 -19 0 -25z m-42 -8 c3 -5 1 -10 -4 -10 -6 0 -11 5
-11 10 0 6 2 10 4 10 3 0 8 -4 11 -10z m153 -25 c-3 -3 -9 2 -12 12 -6 14 -5
15 5 6 7 -7 10 -15 7 -18z m-448 5 c0 -5 -5 -10 -11 -10 -5 0 -7 5 -4 10 3 6
8 10 11 10 2 0 4 -4 4 -10z m500 -11 c0 -11 -4 -17 -10 -14 -5 3 -10 13 -10
21 0 8 5 14 10 14 6 0 10 -9 10 -21z m-249 -60 l-11 -34 5 32 c2 18 0 35 -6
39 -6 4 -5 11 3 22 12 14 13 13 16 -5 2 -12 -2 -36 -7 -54z m69 50 c0 -5 -4
-9 -10 -9 -5 0 -10 7 -10 16 0 8 5 12 10 9 6 -3 10 -10 10 -16z m40 5 c0 -8
-5 -12 -10 -9 -6 4 -8 11 -5 16 9 14 15 11 15 -7z m26 -31 c-11 -11 -19 6 -11
24 8 17 8 17 12 0 3 -10 2 -21 -1 -24z m-958 10 c2 -8 -5 -13 -17 -13 -20 0
-21 -6 -21 -81 0 -60 -3 -80 -12 -77 -9 3 -14 31 -16 80 -2 66 -5 77 -22 81
-11 3 -20 10 -20 17 0 16 102 9 108 -7z m1005 -3 c-3 -11 -9 -20 -14 -20 -11
0 -11 3 -3 24 9 23 23 20 17 -4z m-471 -31 c-3 -29 -1 -40 7 -35 6 4 11 15 11
24 0 9 5 24 10 32 9 13 11 13 19 0 7 -10 6 -17 -2 -22 -6 -4 -8 -10 -4 -14 3
-4 13 -1 22 6 12 10 18 8 35 -11 16 -20 19 -21 20 -6 0 9 3 17 8 17 16 0 52
-32 52 -46 0 -21 21 -17 27 6 3 11 14 20 24 20 36 0 35 -21 -7 -117 -8 -17
-14 -38 -14 -47 0 -9 -4 -16 -10 -16 -5 0 -10 -7 -10 -15 0 -22 -24 -29 -50
-15 -19 10 -20 13 -7 28 22 25 26 72 6 72 -5 0 -8 -4 -4 -9 9 -15 -25 -42 -46
-36 -25 8 -46 -4 -28 -16 10 -6 8 -9 -8 -9 -13 0 -23 6 -23 14 0 19 -17 29
-32 19 -7 -4 -26 -8 -43 -9 -16 0 -41 -4 -54 -8 -16 -6 -21 -5 -17 3 4 6 1 18
-7 26 -12 12 -21 12 -47 4 -23 -9 -38 -9 -56 0 -37 16 -30 33 11 25 46 -8 48
17 3 37 -36 15 -47 41 -28 64 16 19 54 19 70 0 18 -21 6 -29 -19 -13 -18 11
-23 11 -31 -2 -7 -11 -2 -18 18 -29 15 -7 34 -20 43 -28 15 -12 17 -10 23 21
7 37 37 66 68 66 10 0 23 11 30 25 6 13 18 26 27 28 9 3 16 5 16 6 0 0 -1 -18
-3 -40z m108 15 c0 -8 -4 -12 -10 -9 -5 3 -10 10 -10 16 0 5 5 9 10 9 6 0 10
-7 10 -16z m80 -8 c0 -3 -4 -8 -10 -11 -5 -3 -10 -1 -10 4 0 6 5 11 10 11 6 0
10 -2 10 -4z m580 -22 c0 -21 -17 -17 -23 5 -3 14 -1 18 9 14 8 -3 14 -11 14
-19z m-185 -4 c-3 -5 -11 -10 -16 -10 -6 0 -7 5 -4 10 3 6 11 10 16 10 6 0 7
-4 4 -10z m-1085 -50 c0 -38 4 -52 19 -59 27 -15 51 16 51 67 0 23 5 42 10 42
6 0 10 -28 10 -64 l0 -64 -36 -7 c-53 -10 -74 13 -74 82 0 29 5 53 10 53 6 0
10 -22 10 -50z m212 33 c10 -9 18 -24 18 -35 0 -15 -8 -18 -46 -18 -41 0 -45
-2 -42 -22 4 -27 41 -36 65 -17 13 11 15 10 12 -6 -3 -15 -14 -21 -41 -23 -33
-3 -40 1 -57 29 -20 32 -16 63 11 96 15 18 58 16 80 -4z m1028 -19 c0 -8 -4
-12 -10 -9 -5 3 -10 13 -10 21 0 8 5 12 10 9 6 -3 10 -13 10 -21z m1183 4 c21
-12 20 -13 -18 -18 -35 -4 -40 -8 -40 -30 0 -20 6 -26 30 -30 40 -7 38 -24 -2
-28 -30 -3 -33 -6 -33 -38 0 -21 -4 -33 -10 -29 -11 7 -14 168 -3 178 10 11
53 8 76 -5z m-1623 -39 c0 -6 -4 -7 -10 -4 -5 3 -10 11 -10 16 0 6 5 7 10 4 6
-3 10 -11 10 -16z m30 -43 c0 -17 -14 -29 -23 -20 -8 8 3 34 14 34 5 0 9 -6 9
-14z m-38 -18 c5 -32 -31 -81 -47 -65 -10 11 -13 48 -7 80 1 4 13 7 26 7 18 0
26 -6 28 -22z m-322 -57 c0 -14 -44 -21 -55 -9 -7 7 -7 9 0 5 6 -3 17 -2 25 4
19 11 30 11 30 0z m340 0 c0 -5 -7 -11 -15 -15 -15 -5 -20 5 -8 17 9 10 23 9
23 -2z m120 -29 c0 -15 -2 -15 -10 -2 -13 20 -13 33 0 25 6 -3 10 -14 10 -23z
m-396 2 c4 -10 1 -14 -6 -12 -15 5 -23 28 -10 28 5 0 13 -7 16 -16z m441 5
c11 -16 1 -19 -13 -3 -7 8 -8 14 -3 14 5 0 13 -5 16 -11z m-269 -35 c-11 -7
-22 -11 -25 -8 -3 3 3 12 13 20 11 7 22 11 25 8 3 -3 -3 -12 -13 -20z m59 16
c-3 -5 -11 -10 -16 -10 -6 0 -7 5 -4 10 3 6 11 10 16 10 6 0 7 -4 4 -10z m56
-23 c-16 -16 -26 0 -10 19 9 11 15 12 17 4 2 -6 -1 -17 -7 -23z m64 24 c3 -5
1 -12 -5 -16 -5 -3 -10 1 -10 9 0 18 6 21 15 7z m225 -1 c0 -5 -4 -10 -10 -10
-5 0 -10 5 -10 10 0 6 5 10 10 10 6 0 10 -4 10 -10z m-764 -27 c-7 -7 -26 7
-26 19 0 6 6 6 15 -2 9 -7 13 -15 11 -17z m59 17 c-3 -5 -10 -10 -16 -10 -5 0
-9 5 -9 10 0 6 7 10 16 10 8 0 12 -4 9 -10z m-88 -58 c-5 -6 -7 -27 -3 -44 6
-31 6 -32 -11 -16 -14 14 -15 23 -7 45 8 21 7 34 -5 53 l-14 25 25 -25 c18
-18 23 -29 15 -38z m328 48 c3 -5 -3 -10 -14 -10 -12 0 -21 5 -21 10 0 6 6 10
14 10 8 0 18 -4 21 -10z m445 -32 c0 -4 -6 -8 -12 -8 -7 0 -14 12 -15 27 -1
26 0 27 13 8 8 -10 14 -22 14 -27z m80 32 c0 -5 -4 -10 -10 -10 -5 0 -10 5
-10 10 0 6 5 10 10 10 6 0 10 -4 10 -10z m117 -22 c-3 -8 -6 -5 -6 6 -1 11 2
17 5 13 3 -3 4 -12 1 -19z m-722 2 c3 -5 -1 -10 -10 -10 -9 0 -13 5 -10 10 3
6 8 10 10 10 2 0 7 -4 10 -10z m190 0 c3 -5 -3 -10 -15 -10 -12 0 -18 5 -15
10 3 6 10 10 15 10 5 0 12 -4 15 -10z m105 0 c0 -5 -2 -10 -4 -10 -3 0 -8 5
-11 10 -3 6 -1 10 4 10 6 0 11 -4 11 -10z m-490 -30 c-12 -23 -30 -27 -30 -6
0 8 8 17 18 19 9 3 18 5 20 6 1 0 -2 -8 -8 -19z m-111 -7 c-24 -30 -51 -55
-54 -51 -5 5 49 67 59 68 5 0 2 -8 -5 -17z m29 -102 c3 -8 -1 -12 -9 -9 -7 2
-15 10 -17 17 -3 8 1 12 9 9 7 -2 15 -10 17 -17z m1029 -18 c-3 -10 -5 -4 -5
12 0 17 2 24 5 18 2 -7 2 -21 0 -30z m-60 -40 c-3 -10 -5 -2 -5 17 0 19 2 27
5 18 2 -10 2 -26 0 -35z m-1057 27 c0 -5 -4 -10 -10 -10 -5 0 -10 5 -10 10 0
6 5 10 10 10 6 0 10 -4 10 -10z m60 0 c0 -5 -5 -10 -11 -10 -5 0 -7 5 -4 10 3
6 8 10 11 10 2 0 4 -4 4 -10z m-124 -37 c-19 -38 -55 -78 -62 -70 -3 3 8 21
25 39 17 18 31 39 31 46 0 6 5 12 10 12 6 0 5 -11 -4 -27z m99 -13 c-3 -5 -10
-10 -16 -10 -5 0 -9 5 -9 10 0 6 7 10 16 10 8 0 12 -4 9 -10z m-55 -20 c0 -11
-7 -20 -15 -20 -8 0 -15 9 -15 20 0 11 7 20 15 20 8 0 15 -9 15 -20z m1045
-72 c6 -21 4 -28 -8 -28 -11 0 -13 6 -10 21 4 14 0 25 -11 31 -9 5 -14 14 -10
20 9 14 31 -11 39 -44z m75 5 c-11 -17 -11 -17 -6 0 3 10 6 24 7 30 0 9 2 9 5
0 3 -7 0 -20 -6 -30z m-1212 -23 c-7 -11 -19 -20 -27 -20 -9 0 -6 7 9 20 13
11 25 20 27 20 2 0 -2 -9 -9 -20z m1192 0 c0 -5 -5 -10 -11 -10 -5 0 -7 5 -4
10 3 6 8 10 11 10 2 0 4 -4 4 -10z m-90 -14 c0 -8 -4 -18 -10 -21 -5 -3 -10
-4 -10 -1 0 2 -3 11 -6 20 -4 11 -1 16 10 16 9 0 16 -6 16 -14z m-1129 -56 c5
0 9 -4 9 -10 0 -17 -14 -11 -28 10 -7 12 -9 26 -5 33 5 8 9 5 11 -10 2 -13 8
-23 13 -23z m1178 7 c-18 -34 -21 -34 -15 -2 2 17 5 31 5 33 1 2 6 0 11 -3 7
-4 6 -14 -1 -28z m-63 -24 c-10 -10 -19 5 -10 18 6 11 8 11 12 0 2 -7 1 -15
-2 -18z m-1211 -33 c-10 -11 -20 -18 -23 -16 -2 3 3 12 12 21 9 9 13 22 10 28
-5 8 -3 8 6 0 11 -10 10 -16 -5 -33z m1195 -11 c0 -5 -7 -9 -15 -9 -8 0 -15 7
-15 15 0 9 6 12 15 9 8 -4 15 -10 15 -15z m44 6 c-4 -8 -10 -15 -15 -15 -4 0
-6 7 -3 15 4 8 10 15 15 15 4 0 6 -7 3 -15z m-99 -15 c3 -5 -1 -10 -10 -10 -9
0 -13 5 -10 10 3 6 8 10 10 10 2 0 7 -4 10 -10z m-1115 -15 c0 -8 -4 -15 -10
-15 -5 0 -7 7 -4 15 4 8 8 15 10 15 2 0 4 -7 4 -15z m1167 -23 c-10 -10 -17
-24 -17 -30 0 -7 -4 -12 -10 -12 -17 0 -11 21 13 41 28 24 35 24 14 1z m-97
-2 c0 -5 -6 -10 -14 -10 -8 0 -18 5 -21 10 -3 6 3 10 14 10 12 0 21 -4 21 -10z
m30 -30 c0 -5 -4 -10 -9 -10 -6 0 -13 5 -16 10 -3 6 1 10 9 10 9 0 16 -4 16
-10z m23 -35 c-3 -9 -8 -14 -10 -11 -3 3 -2 9 2 15 9 16 15 13 8 -4z m-1243
-13 c0 -10 -22 -32 -32 -32 -5 0 -3 9 4 20 13 20 28 27 28 12z m38 -52 c-7
-10 -14 -18 -15 -16 -6 6 9 36 18 36 5 0 4 -9 -3 -20z m-112 -37 c-29 -31 -32
-43 -13 -62 10 -11 7 -12 -14 -7 -20 4 -29 1 -33 -11 -4 -9 -9 -13 -12 -10 -3
3 9 27 27 53 50 70 63 86 67 75 2 -6 -8 -23 -22 -38z m54 27 c0 -5 -5 -10 -11
-10 -5 0 -7 5 -4 10 3 6 8 10 11 10 2 0 4 -4 4 -10z m17 -32 c-3 -8 -6 -5 -6
6 -1 11 2 17 5 13 3 -3 4 -12 1 -19z m70 0 c-3 -8 -6 -5 -6 6 -1 11 2 17 5 13
3 -3 4 -12 1 -19z m1094 -5 c-12 -20 -14 -14 -5 12 4 9 9 14 11 11 3 -2 0 -13
-6 -23z m-101 7 c0 -5 -5 -10 -11 -10 -5 0 -7 5 -4 10 3 6 8 10 11 10 2 0 4
-4 4 -10z m-17 -40 c-3 -11 -7 -20 -9 -20 -2 0 -4 9 -4 20 0 11 4 20 9 20 5 0
7 -9 4 -20z m43 -17 c-11 -11 -19 6 -11 24 8 17 8 17 12 0 3 -10 2 -21 -1 -24z
m24 -20 c-1 -15 -30 -46 -37 -40 -3 4 2 16 12 27 19 21 25 24 25 13z m-1160
-23 c0 -11 -4 -20 -10 -20 -5 0 -10 9 -10 20 0 11 5 20 10 20 6 0 10 -9 10
-20z m-55 0 c3 -5 1 -10 -4 -10 -6 0 -11 5 -11 10 0 6 2 10 4 10 3 0 8 -4 11
-10z m-41 -29 c3 -5 -6 -8 -20 -8 -19 0 -22 2 -13 8 18 11 26 11 33 0z m1211
-11 c3 -5 -1 -10 -10 -10 -9 0 -13 5 -10 10 3 6 8 10 10 10 2 0 7 -4 10 -10z
m-25 -35 c0 -8 -5 -14 -12 -12 -6 1 -22 -19 -34 -45 -23 -45 -44 -69 -44 -49
0 6 4 11 9 11 5 0 11 14 15 30 3 17 17 42 30 55 29 29 36 31 36 10z m-1250
-60 c0 -9 7 -18 15 -21 8 -4 12 -10 9 -16 -7 -12 -44 20 -44 39 0 7 5 13 10
13 6 0 10 -7 10 -15z m-50 -15 c0 -5 -5 -10 -11 -10 -5 0 -7 5 -4 10 3 6 8 10
11 10 2 0 4 -4 4 -10z m-24 -46 c-3 -9 -6 -20 -6 -25 0 -5 -7 -9 -17 -9 -15 0
-15 1 0 18 10 10 14 22 10 25 -3 4 -1 7 6 7 8 0 11 -6 7 -16z m1218 -36 c-4
-6 -10 -5 -15 3 -14 22 -10 33 6 19 8 -7 12 -17 9 -22z m-1184 -18 c-6 -11
-15 -20 -20 -20 -16 0 -11 18 8 29 24 14 24 14 12 -9z m1142 -22 c-7 -7 -12
-8 -12 -2 0 14 12 26 19 19 2 -3 -1 -11 -7 -17z m-1082 2 c0 -5 -5 -10 -11
-10 -5 0 -7 5 -4 10 3 6 8 10 11 10 2 0 4 -4 4 -10z m-201 -69 c-31 -41 -35
-32 -7 14 12 21 24 33 26 27 2 -6 -7 -25 -19 -41z m1181 29 c0 -5 -4 -10 -10
-10 -5 0 -10 5 -10 10 0 6 5 10 10 10 6 0 10 -4 10 -10z m45 0 c3 -5 1 -10 -4
-10 -6 0 -11 5 -11 10 0 6 2 10 4 10 3 0 8 -4 11 -10z m-21 -36 c4 -10 1 -14
-6 -12 -15 5 -23 28 -10 28 5 0 13 -7 16 -16z m28 -16 c-8 -8 -9 -4 -5 13 4
13 8 18 11 10 2 -7 -1 -18 -6 -23z m-1207 -28 c-3 -5 -11 -10 -16 -10 -6 0 -7
5 -4 10 3 6 11 10 16 10 6 0 7 -4 4 -10z m1159 -29 c-9 -10 -26 18 -18 30 5 9
9 8 14 -7 4 -10 6 -21 4 -23z m-1203 -24 c-10 -9 -11 -8 -5 6 3 10 9 15 12 12
3 -3 0 -11 -7 -18z m1069 -5 c0 -13 -12 -22 -22 -16 -10 6 -1 24 13 24 5 0 9
-4 9 -8z m110 -6 c0 -8 -4 -18 -10 -21 -5 -3 -10 3 -10 14 0 12 5 21 10 21 6
0 10 -6 10 -14z m-30 -31 c0 -3 -11 -23 -25 -45 -14 -22 -25 -44 -25 -49 0 -5
-6 -14 -14 -20 -11 -9 -12 -6 -8 14 2 14 8 25 12 25 5 0 16 18 26 40 15 34 34
53 34 35z m-1227 -20 c4 -8 2 -17 -3 -20 -6 -4 -10 3 -10 14 0 25 6 27 13 6z
m1167 -5 c0 -5 -4 -10 -10 -10 -5 0 -10 5 -10 10 0 6 5 10 10 10 6 0 10 -4 10
-10z m-1222 -29 c-7 -12 -16 -21 -21 -21 -4 0 0 11 10 24 22 29 30 27 11 -3z
m42 -9 c0 -4 -6 -14 -12 -20 -10 -10 -10 -14 0 -21 8 -5 2 -8 -17 -8 l-30 0
22 28 c22 28 37 36 37 21z m-78 -87 c-2 -14 -8 -22 -13 -19 -5 3 -5 14 1 25
14 26 18 24 12 -6z m1230 3 c-14 -14 -114 -19 -105 -5 3 5 25 7 49 4 24 -2 44
-1 44 4 0 5 5 9 12 9 9 0 9 -3 0 -12z m-1272 -17 c-11 -21 -30 -37 -30 -25 0
8 30 44 37 44 2 0 -1 -9 -7 -19z m-30 -51 c0 -5 -2 -10 -4 -10 -3 0 -8 5 -11
10 -3 6 -1 10 4 10 6 0 11 -4 11 -10z m2673 -1837 c-7 -2 -19 -2 -25 0 -7 3
-2 5 12 5 14 0 19 -2 13 -5z m-373 -23 c0 -5 -9 -10 -20 -10 -11 0 -20 5 -20
10 0 6 9 10 20 10 11 0 20 -4 20 -10z m495 0 c-3 -5 -23 -10 -43 -9 -30 0 -33
2 -17 9 28 12 67 12 60 0z m-92 -7 c-7 -2 -21 -2 -30 0 -10 3 -4 5 12 5 17 0
24 -2 18 -5z m150 -10 c-7 -2 -19 -2 -25 0 -7 3 -2 5 12 5 14 0 19 -2 13 -5z
m-686 -9 c-3 -3 -12 -4 -19 -1 -8 3 -5 6 6 6 11 1 17 -2 13 -5z m233 2 c0 -8
-51 -13 -56 -5 -3 5 9 9 25 9 17 0 31 -2 31 -4z m-173 -12 c-3 -3 -12 -4 -19
-1 -8 3 -5 6 6 6 11 1 17 -2 13 -5z m573 -4 c0 -6 -18 -10 -40 -10 -22 0 -40
4 -40 8 0 5 18 9 40 10 22 1 40 -3 40 -8z m190 -20 c13 -8 13 -10 -2 -10 -9 0
-20 5 -23 10 -8 13 5 13 25 0z m-273 -6 c-3 -3 -12 -4 -19 -1 -8 3 -5 6 6 6
11 1 17 -2 13 -5z m-637 -24 c0 -5 -5 -10 -11 -10 -5 0 -7 5 -4 10 3 6 8 10
11 10 2 0 4 -4 4 -10z m986 1 c5 -5 31 -20 59 -35 27 -14 43 -26 35 -26 -8 0
-28 9 -45 20 -16 11 -37 20 -45 20 -8 0 -24 7 -34 15 -20 15 -20 15 0 15 11 0
24 -4 30 -9z m-1063 -18 c-7 -2 -19 -2 -25 0 -7 3 -2 5 12 5 14 0 19 -2 13 -5z
m-53 -24 c-13 -8 -13 -10 0 -20 13 -9 12 -10 -3 -5 -10 3 -23 6 -28 6 -17 0
-9 17 14 27 26 12 38 6 17 -8z m-60 -29 c0 -5 -2 -10 -4 -10 -3 0 -8 5 -11 10
-3 6 -1 10 4 10 6 0 11 -4 11 -10z m40 -20 c0 -5 -4 -10 -9 -10 -6 0 -13 5
-16 10 -3 6 1 10 9 10 9 0 16 -4 16 -10z m60 6 c0 -3 -4 -8 -10 -11 -5 -3 -10
-1 -10 4 0 6 5 11 10 11 6 0 10 -2 10 -4z m43 -3 c-7 -2 -19 -2 -25 0 -7 3 -2
5 12 5 14 0 19 -2 13 -5z m1154 -8 c0 -8 -4 -15 -8 -15 -4 0 -9 7 -13 15 -3 9
0 15 8 15 7 0 13 -7 13 -15z m-74 -12 c-7 -2 -19 -2 -25 0 -7 3 -2 5 12 5 14
0 19 -2 13 -5z m-1328 -25 c-11 -6 -23 -16 -27 -22 -5 -8 -8 -7 -8 1 0 12 28
32 45 32 6 0 1 -5 -10 -11z m1502 -15 c3 -7 -3 -9 -16 -6 -12 3 -21 10 -21 15
0 13 32 6 37 -9z m-1547 -23 c0 -5 -5 -10 -11 -10 -5 0 -7 5 -4 10 3 6 8 10
11 10 2 0 4 -4 4 -10z m47 -12 c-3 -8 -6 -5 -6 6 -1 11 2 17 5 13 3 -3 4 -12
1 -19z m1462 -1 c8 -10 7 -14 -4 -14 -8 0 -15 6 -15 14 0 7 2 13 4 13 2 0 9
-6 15 -13z m115 -23 c3 -8 2 -12 -4 -9 -6 3 -10 10 -10 16 0 14 7 11 14 -7z
m-1694 -19 c-7 -9 -15 -13 -17 -11 -7 7 7 26 19 26 6 0 6 -6 -2 -15z m-35 -34
c-3 -6 -11 -11 -17 -11 -6 0 -6 6 2 15 14 17 26 13 15 -4z m198 -8 c-7 -2 -19
-2 -25 0 -7 3 -2 5 12 5 14 0 19 -2 13 -5z m1495 -11 c2 -7 -3 -12 -10 -12 -8
0 -15 7 -15 15 0 18 19 15 25 -3z m91 -23 c-17 -10 -25 -4 -32 20 -5 19 -4 19
20 4 18 -12 21 -18 12 -24z m-1748 -51 c8 -3 11 -9 7 -13 -4 -4 -14 0 -23 9
-9 9 -22 16 -30 16 -14 0 -47 45 -39 53 3 2 20 -10 38 -28 19 -18 40 -35 47
-37z m-3 53 c3 -8 -1 -12 -9 -9 -7 2 -15 10 -17 17 -3 8 1 12 9 9 7 -2 15 -10
17 -17z m1831 -46 c-3 -2 -16 10 -29 28 l-23 32 29 -27 c15 -15 26 -30 23 -33z
m-1945 11 c-3 -8 -13 -17 -22 -21 -13 -5 -13 -2 3 15 21 24 26 25 19 6z m1922
-53 c-10 -10 -19 5 -10 18 6 11 8 11 12 0 2 -7 1 -15 -2 -18z m49 17 c3 -5 1
-10 -4 -10 -6 0 -11 5 -11 10 0 6 2 10 4 10 3 0 8 -4 11 -10z m-2017 -20 c-7
-10 -14 -17 -17 -15 -4 4 18 35 25 35 2 0 -1 -9 -8 -20z m112 10 c0 -5 -4 -10
-10 -10 -5 0 -10 5 -10 10 0 6 5 10 10 10 6 0 10 -4 10 -10z m1840 -46 c0 -22
-16 -17 -17 6 -1 11 2 18 8 15 5 -4 9 -13 9 -21z m-1980 -1 c-1 -16 -30 -46
-37 -38 -5 4 -2 10 5 12 6 3 12 11 12 19 0 8 5 14 10 14 6 0 10 -3 10 -7z
m2090 -13 c8 -16 8 -20 -4 -20 -10 0 -13 -6 -10 -15 4 -8 2 -15 -3 -15 -17 0
-23 13 -12 26 6 8 9 21 5 29 -8 22 12 18 24 -5z m-60 -5 c0 -8 -4 -15 -10 -15
-5 0 -10 7 -10 15 0 8 5 15 10 15 6 0 10 -7 10 -15z m110 -57 c0 -4 -4 -8 -10
-8 -5 0 -10 4 -10 9 0 5 -3 18 -6 28 -5 16 -4 16 10 -1 9 -11 16 -23 16 -28z
m-134 -5 c-11 -11 -19 6 -11 24 8 17 8 17 12 0 3 -10 2 -21 -1 -24z m-2006 23
c0 -3 -4 -8 -10 -11 -5 -3 -10 -1 -10 4 0 6 5 11 10 11 6 0 10 -2 10 -4z m37
-18 c-3 -8 -6 -5 -6 6 -1 11 2 17 5 13 3 -3 4 -12 1 -19z m-107 -38 c13 -9 13
-12 -2 -24 -10 -7 -18 -18 -18 -25 0 -6 -4 -11 -10 -11 -5 0 -10 5 -10 11 0 5
-4 7 -10 4 -5 -3 -7 0 -4 9 3 8 12 12 19 10 18 -7 31 16 14 27 -8 5 -9 9 -4 9
6 0 17 -5 25 -10z m2187 -22 c-3 -7 -5 -2 -5 12 0 14 2 19 5 13 2 -7 2 -19 0
-25z m34 -11 c-13 -13 -15 1 -4 30 7 17 8 17 11 -1 2 -10 -1 -23 -7 -29z
m-2196 -6 c-3 -6 -11 -11 -16 -11 -5 0 -4 6 3 14 14 16 24 13 13 -3z m2231 -6
c-3 -9 0 -18 7 -21 7 -2 12 -21 12 -42 0 -27 -3 -36 -10 -29 -6 6 -9 23 -7 39
3 16 0 28 -7 28 -6 0 -11 9 -11 20 0 11 5 20 11 20 6 0 8 -7 5 -15z m-2313
-35 c-3 -11 -7 -20 -9 -20 -2 0 -4 9 -4 20 0 11 4 20 9 20 5 0 7 -9 4 -20z
m2254 -12 c-3 -8 -6 -5 -6 6 -1 11 2 17 5 13 3 -3 4 -12 1 -19z m-2237 -28 c0
-5 -4 -10 -10 -10 -5 0 -10 5 -10 10 0 6 5 10 10 10 6 0 10 -4 10 -10z m-50
-18 c0 -9 -9 -23 -20 -30 -12 -7 -20 -8 -20 -2 0 5 5 10 10 10 6 0 10 9 10 20
0 11 5 20 10 20 6 0 10 -8 10 -18z m90 -12 c0 -5 -5 -10 -11 -10 -5 0 -7 5 -4
10 3 6 8 10 11 10 2 0 4 -4 4 -10z m2330 -21 c0 -6 -4 -7 -10 -4 -5 3 -10 11
-10 16 0 6 5 7 10 4 6 -3 10 -11 10 -16z m-2406 -14 c-4 -8 -8 -15 -10 -15 -2
0 -4 7 -4 15 0 8 4 15 10 15 5 0 7 -7 4 -15z m56 -21 c0 -8 -6 -14 -14 -14 -9
0 -12 7 -9 20 6 22 23 18 23 -6z m2370 -4 c0 -5 -5 -10 -11 -10 -5 0 -7 5 -4
10 3 6 8 10 11 10 2 0 4 -4 4 -10z m-2490 -21 c-7 -11 -14 -18 -17 -15 -3 3 0
12 7 21 18 21 23 19 10 -6z m90 -14 c0 -8 -2 -15 -4 -15 -2 0 -6 7 -10 15 -3
8 -1 15 4 15 6 0 10 -7 10 -15z m1435 -5 c8 -13 -5 -13 -25 0 -13 8 -13 10 2
10 9 0 20 -4 23 -10z m982 -22 c-3 -8 -6 -5 -6 6 -1 11 2 17 5 13 3 -3 4 -12
1 -19z m-1314 -5 c-13 -2 -33 -2 -45 0 -13 2 -3 4 22 4 25 0 35 -2 23 -4z m67
-3 c0 -5 -4 -10 -10 -10 -5 0 -10 5 -10 10 0 6 5 10 10 10 6 0 10 -4 10 -10z
m173 0 c-14 -6 -32 -6 -45 0 -19 7 -15 9 22 9 37 0 41 -2 23 -9z m-213 -20
c-8 -5 -22 -9 -30 -9 -10 0 -8 3 5 9 27 12 43 12 25 0z m1270 -12 c0 -12 -3
-18 -7 -14 -11 10 -12 36 -2 36 5 0 9 -10 9 -22z m-1380 8 c0 -3 -4 -8 -10
-11 -5 -3 -10 -1 -10 4 0 6 5 11 10 11 6 0 10 -2 10 -4z m53 -3 c-7 -2 -19 -2
-25 0 -7 3 -2 5 12 5 14 0 19 -2 13 -5z m267 -12 c21 -9 19 -10 -15 -5 -49 8
-85 25 -40 19 17 -2 41 -8 55 -14z m-1478 -13 c-7 -7 -12 -8 -12 -2 0 14 12
26 19 19 2 -3 -1 -11 -7 -17z m2587 -16 c0 -24 -1 -25 -9 -7 -12 28 -12 47 0
40 6 -3 10 -18 9 -33z m-1277 15 c-20 -6 -36 -7 -42 -1 -6 6 7 10 33 10 l42 1
-33 -10z m-128 -16 c3 -4 -6 -6 -19 -3 -14 2 -25 6 -25 8 0 8 39 4 44 -5z
m249 2 c-7 -2 -21 -2 -30 0 -10 3 -4 5 12 5 17 0 24 -2 18 -5z m42 -13 c3 -6
-1 -7 -9 -4 -18 7 -21 14 -7 14 6 0 13 -4 16 -10z m-1435 -22 c0 -6 -6 -5 -15
2 -8 7 -15 14 -15 16 0 2 7 1 15 -2 8 -4 15 -11 15 -16z m2446 -35 c-11 -11
-19 6 -11 24 8 17 8 17 12 0 3 -10 2 -21 -1 -24z m84 8 c0 -6 -4 -13 -10 -16
-5 -3 -10 1 -10 9 0 9 5 16 10 16 6 0 10 -4 10 -9z m51 -35 c5 -6 9 -17 9 -25
0 -11 -4 -10 -15 5 -8 10 -14 30 -14 44 1 20 2 21 6 5 3 -11 9 -24 14 -29z
m-2641 14 c0 -5 -2 -10 -4 -10 -3 0 -8 5 -11 10 -3 6 -1 10 4 10 6 0 11 -4 11
-10z m1634 -6 c6 -15 4 -15 -11 -3 -10 7 -20 15 -22 16 -2 2 3 3 11 3 9 0 19
-7 22 -16z m921 -4 c3 -5 1 -10 -4 -10 -6 0 -11 5 -11 10 0 6 2 10 4 10 3 0 8
-4 11 -10z m-1588 -6 c-3 -3 -12 -4 -19 -1 -8 3 -5 6 6 6 11 1 17 -2 13 -5z
m-32 -24 c3 -5 -1 -10 -9 -10 -9 0 -16 5 -16 10 0 6 4 10 9 10 6 0 13 -4 16
-10z m23 -36 c-45 -46 -58 -43 -17 4 19 21 38 37 42 34 5 -2 -6 -19 -25 -38z
m-988 2 c0 -3 -4 -8 -10 -11 -5 -3 -10 -1 -10 4 0 6 5 11 10 11 6 0 10 -2 10
-4z m1745 -6 c3 -5 1 -10 -4 -10 -6 0 -11 5 -11 10 0 6 2 10 4 10 3 0 8 -4 11
-10z m942 -52 c-2 -13 -4 -3 -4 22 0 25 2 35 4 23 2 -13 2 -33 0 -45z m-1762
42 c3 -5 1 -10 -4 -10 -6 0 -11 5 -11 10 0 6 2 10 4 10 3 0 8 -4 11 -10z m911
-12 c-10 -6 -20 -7 -24 -3 -9 8 20 25 31 18 5 -3 2 -10 -7 -15z m-959 -13 c8
-8 13 -20 11 -26 -2 -7 -12 0 -21 15 -19 29 -14 35 10 11z m-34 -40 c4 -8 2
-17 -3 -20 -6 -4 -10 3 -10 14 0 25 6 27 13 6z m-43 -42 c0 -7 -4 -13 -10 -13
-5 0 -10 12 -10 28 0 21 2 24 10 12 5 -8 10 -21 10 -27z m1046 1 c-3 -9 -6
-20 -6 -25 0 -5 -4 -9 -10 -9 -11 0 -14 33 -3 43 12 13 25 7 19 -9z m-970 -41
c-13 -24 -15 -25 -16 -7 0 11 5 25 12 32 19 19 21 6 4 -25z m-119 5 c-3 -8 -6
-5 -6 6 -1 11 2 17 5 13 3 -3 4 -12 1 -19z m72 -20 c0 -35 -2 -39 -9 -21 -8
19 -3 63 6 63 2 0 4 -19 3 -42z m-882 0 c-3 -8 -6 -5 -6 6 -1 11 2 17 5 13 3
-3 4 -12 1 -19z m843 -27 c0 -6 -4 -13 -10 -16 -5 -3 -10 1 -10 9 0 9 5 16 10
16 6 0 10 -4 10 -9z m1080 -1 c0 -5 -4 -10 -10 -10 -5 0 -10 5 -10 10 0 6 5
10 10 10 6 0 10 -4 10 -10z m-1060 -45 c0 -8 -4 -15 -9 -15 -5 0 -11 -8 -13
-17 -3 -16 -6 -15 -16 5 -11 18 -10 22 3 22 8 0 15 5 15 10 0 6 5 10 10 10 6
0 10 -7 10 -15z m20 -22 c-11 -17 -11 -17 -6 0 3 10 6 24 7 30 0 9 2 9 5 0 3
-7 0 -20 -6 -30z m-888 -96 c-9 -18 -11 -7 -10 53 l1 75 10 -53 c7 -36 7 -59
-1 -75z m867 15 c-1 -17 -3 -21 -6 -9 -2 9 -11 17 -19 17 -12 0 -12 2 -2 14
18 19 28 10 27 -22z m1083 6 c-8 -8 -9 -4 -5 13 4 13 8 18 11 10 2 -7 -1 -18
-6 -23z m28 -50 c0 -29 -4 -48 -8 -41 -7 12 -4 93 4 93 2 0 4 -24 4 -52z
m-1970 -43 c0 -8 -4 -15 -10 -15 -5 0 -10 7 -10 15 0 8 5 15 10 15 6 0 10 -7
10 -15z m477 9 c-3 -3 -12 -4 -19 -1 -8 3 -5 6 6 6 11 1 17 -2 13 -5z m236 -1
c-7 -2 -19 -2 -25 0 -7 3 -2 5 12 5 14 0 19 -2 13 -5z m132 -22 c-3 -6 -11 -8
-17 -5 -6 4 -5 9 3 15 16 10 23 4 14 -10z m-557 2 c-10 -2 -26 -2 -35 0 -10 3
-2 5 17 5 19 0 27 -2 18 -5z m125 0 c-13 -2 -35 -2 -50 0 -16 2 -5 4 22 4 28
0 40 -2 28 -4z m-152 -31 c-52 -1 -98 1 -102 5 -5 4 38 6 94 3 l102 -5 -94 -3z
m2234 8 c3 -5 -1 -10 -9 -10 -9 0 -16 5 -16 10 0 6 4 10 9 10 6 0 13 -4 16
-10z m-528 -22 c-3 -8 -6 -5 -6 6 -1 11 2 17 5 13 3 -3 4 -12 1 -19z m691 -5
c-16 -2 -40 -2 -55 0 -16 2 -3 4 27 4 30 0 43 -2 28 -4z m-341 -29 c-3 -3 -12
-4 -19 -1 -8 3 -5 6 6 6 11 1 17 -2 13 -5z m441 -9 c10 -9 10 -2630 1 -2756
-13 -183 -50 -276 -139 -352 -66 -56 -122 -77 -244 -92 -151 -19 -423 -38
-436 -30 -5 3 -10 31 -10 61 0 35 -5 56 -13 59 -6 3 -37 -8 -67 -23 -55 -29
-167 -67 -290 -98 -80 -21 -441 -25 -448 -6 -2 7 -21 12 -42 12 -22 0 -49 4
-62 9 -13 5 -50 17 -83 27 -104 30 -365 170 -365 196 0 4 -4 8 -10 8 -11 0
-47 29 -99 79 -29 29 -31 33 -13 29 12 -4 24 -3 27 2 3 4 23 8 45 8 22 0 44 3
48 6 5 3 82 8 173 11 90 4 169 11 174 17 7 7 -13 8 -60 4 -99 -8 -289 -16
-505 -21 -101 -3 -241 -9 -310 -14 -120 -10 -257 -19 -611 -42 -184 -12 -214
-6 -273 49 -98 92 -91 281 15 376 56 52 112 63 384 76 455 22 516 27 525 36 5
5 1 26 -11 54 -23 51 -83 279 -94 358 -5 39 -16 63 -42 94 -60 72 -68 94 -68
193 0 104 15 141 87 218 55 58 119 79 188 62 117 -30 151 -73 207 -265 3 -11
6 -12 12 -2 5 9 43 13 129 14 l122 1 0 38 c0 81 70 189 149 228 67 34 106 35
167 5 68 -33 115 -87 137 -157 21 -67 21 -95 1 -169 -18 -63 -75 -138 -125
-164 -16 -8 -29 -19 -29 -25 0 -6 19 -42 41 -80 135 -226 387 -317 619 -222
19 8 42 18 50 23 8 6 25 14 36 19 35 16 139 122 176 181 87 140 116 271 104
474 -4 59 -6 410 -6 779 0 521 3 674 13 683 8 8 81 15 217 19 113 4 208 10
212 14 8 7 389 4 396 -4z m-3330 -1462 c219 -125 118 -504 -134 -503 -79 1
-164 63 -199 147 -22 51 -19 177 4 229 65 143 206 197 329 127z m2360 -29 c7
-14 12 -55 12 -92 0 -110 -61 -208 -152 -246 -75 -32 -83 -18 -43 66 14 28 25
53 25 54 0 1 -21 0 -47 -3 -44 -4 -51 -2 -77 26 -53 55 -46 152 14 206 17 15
37 20 93 21 124 3 129 3 121 15 -3 6 5 4 18 -5 14 -9 30 -28 36 -42z"/>
<path d="M8300 10539 c0 -11 4 -18 10 -14 5 3 7 12 3 20 -7 21 -13 19 -13 -6z"/>
<path d="M9540 10544 c0 -8 5 -12 10 -9 6 3 10 10 10 16 0 5 -4 9 -10 9 -5 0
-10 -7 -10 -16z"/>
<path d="M8370 10490 c0 -5 5 -10 11 -10 5 0 7 5 4 10 -3 6 -8 10 -11 10 -2 0
-4 -4 -4 -10z"/>
<path d="M7630 8795 c7 -8 16 -15 21 -15 5 0 9 7 9 15 0 9 -9 15 -21 15 -18 0
-19 -2 -9 -15z"/>
<path d="M7117 11683 c-11 -10 -8 -61 4 -69 6 -3 17 0 25 8 11 11 12 21 5 41
-10 27 -21 33 -34 20z"/>
<path d="M7236 11662 c-9 -28 3 -52 26 -52 16 0 19 6 16 32 -3 37 -33 51 -42
20z"/>
<path d="M7334 11667 c-9 -25 0 -62 15 -62 22 0 38 32 25 52 -14 23 -33 28
-40 10z"/>
<path d="M7656 10561 c-11 -18 13 -61 34 -61 27 0 28 45 1 60 -24 12 -28 12
-35 1z m34 -41 c0 -5 -4 -10 -10 -10 -5 0 -10 5 -10 10 0 6 5 10 10 10 6 0 10
-4 10 -10z"/>
<path d="M7891 10514 c0 -11 3 -14 6 -6 3 7 2 16 -1 19 -3 4 -6 -2 -5 -13z"/>
<path d="M7818 10503 c7 -3 16 -2 19 1 4 3 -2 6 -13 5 -11 0 -14 -3 -6 -6z"/>
<path d="M7407 10584 c-15 -15 -6 -24 24 -24 20 0 29 4 27 13 -5 14 -40 21
-51 11z"/>
<path d="M8448 3831 c-1 -39 0 -71 4 -71 4 0 5 -6 2 -14 -3 -7 7 -23 22 -35
18 -14 22 -21 11 -21 -22 0 -47 -39 -47 -72 0 -26 3 -28 43 -28 38 0 47 5 73
37 16 20 35 42 42 49 19 20 15 24 -25 21 -37 -2 -37 -2 -39 38 0 22 -2 50 -2
63 -1 12 -20 41 -41 64 l-39 40 -4 -71z m79 -203 c-3 -7 -5 -2 -5 12 0 14 2
19 5 13 2 -7 2 -19 0 -25z"/>
<path d="M9848 3881 c-27 -4 -54 -13 -60 -19 -14 -14 -18 -154 -5 -185 6 -17
18 -18 123 -15 101 3 117 6 130 22 16 23 19 141 4 180 -9 25 -13 26 -77 25
-38 -1 -89 -5 -115 -8z m83 -77 c38 -19 35 -42 -8 -67 -42 -24 -53 -16 -53 39
0 50 11 55 61 28z"/>
<path d="M7633 3841 c-41 -26 -65 -77 -61 -132 l3 -44 37 56 c39 60 73 78 108
59 46 -24 37 -68 -31 -161 l-48 -65 23 -47 23 -48 13 41 c7 22 16 40 20 40 4
0 13 12 21 28 7 15 24 44 38 64 20 32 23 47 19 99 -4 52 -9 65 -36 90 -42 39
-87 46 -129 20z"/>
<path d="M8348 3654 c-2 -19 -1 -37 3 -40 6 -3 59 58 59 68 0 2 -13 5 -29 6
-26 2 -29 -1 -33 -34z"/>
<path d="M8165 3671 c-3 -5 -1 -12 5 -16 5 -3 10 1 10 9 0 18 -6 21 -15 7z"/>
<path d="M8425 3420 c4 -6 11 -8 16 -5 14 9 11 15 -7 15 -8 0 -12 -5 -9 -10z"/>
<path d="M7643 3383 c15 -2 39 -2 55 0 15 2 2 4 -28 4 -30 0 -43 -2 -27 -4z"/>
<path d="M9814 2905 c-14 -21 -15 -31 -6 -50 20 -44 82 -22 82 29 0 48 -49 62
-76 21z"/>
<path d="M9927 2864 c-9 -9 4 -35 14 -28 5 3 9 12 9 20 0 14 -12 19 -23 8z"/>
<path d="M6905 2775 c-36 -19 -67 -53 -59 -66 3 -5 20 2 37 17 24 20 38 25 64
21 32 -6 53 7 37 23 -19 17 -50 19 -79 5z"/>
<path d="M6945 2669 c-11 -16 5 -29 36 -29 35 0 38 -18 6 -48 -29 -28 -76 -28
-110 -2 -31 24 -48 9 -22 -20 61 -67 175 -22 175 69 0 36 -1 37 -40 38 -22 1
-42 -2 -45 -8z"/>
<path d="M9335 2550 c7 -12 68 -12 140 0 44 6 38 7 -48 9 -63 1 -96 -3 -92 -9z"/>
<path d="M9125 2540 c-38 -3 -61 -8 -50 -11 11 -3 70 -3 130 1 99 6 101 8 15
14 -14 1 -56 -1 -95 -4z"/>
<path d="M8780 2519 c-36 -5 -110 -9 -165 -10 -91 -1 -96 -2 -60 -11 29 -8 81
-8 190 0 83 7 173 13 200 13 l50 1 -40 9 c-48 10 -89 9 -175 -2z"/>
<path d="M7005 3717 c-23 -18 -52 -42 -65 -54 -26 -25 -36 -28 -44 -14 -4 5
-33 27 -65 50 -57 39 -59 39 -65 18 -10 -38 -7 -217 4 -217 6 0 10 39 10 96 0
94 0 95 23 88 12 -3 40 -19 61 -35 22 -16 44 -29 49 -29 4 0 30 18 56 40 26
22 53 40 59 40 8 0 12 -29 12 -96 0 -68 3 -95 12 -92 10 4 14 99 9 218 -1 27
-9 25 -56 -13z"/>
<path d="M9136 3788 c-16 -18 -17 -25 -6 -41 9 -16 9 -21 -2 -28 -10 -6 -10
-13 -2 -26 43 -69 141 -12 118 70 -12 39 -40 58 -55 37 -8 -11 -12 -12 -16 -2
-7 17 -16 15 -37 -10z m66 -30 c-5 -5 -22 -6 -38 -1 l-29 7 30 6 c34 7 51 2
37 -12z m13 -38 c3 -5 1 -10 -4 -10 -6 0 -11 5 -11 10 0 6 2 10 4 10 3 0 8 -4
11 -10z"/>
</g>
</svg>
