<svg width="18" height="18" viewBox="0 0 18 18" fill="none" xmlns="http://www.w3.org/2000/svg">
<path fill-rule="evenodd" clip-rule="evenodd" d="M0.75 5.04688C0.75 2.67378 2.67378 0.75 5.04688 0.75H12.9531C15.3262 0.75 17.25 2.67378 17.25 5.04688V12.9531C17.25 15.3262 15.3262 17.25 12.9531 17.25H5.04688C2.67378 17.25 0.75 15.3262 0.75 12.9531V5.04688ZM5.04688 2.46875C3.62302 2.46875 2.46875 3.62302 2.46875 5.04688V12.9531C2.46875 14.377 3.62302 15.5312 5.04688 15.5312H12.9531C14.377 15.5312 15.5312 14.377 15.5312 12.9531V5.04688C15.5312 3.62302 14.377 2.46875 12.9531 2.46875H5.04688Z" fill="white"/>
</svg>
