<svg width="21" height="22" viewBox="0 0 21 22" fill="none" xmlns="http://www.w3.org/2000/svg">
<path fill-rule="evenodd" clip-rule="evenodd" d="M18.7115 10.5239L10.5366 3L2.28855 10.484C1.92071 10.815 1.90207 11.3695 2.24692 11.7225C2.59177 12.0756 3.16951 12.0935 3.53735 11.7625L4.04446 11.3017V17.1501C4.04446 18.1718 4.90735 19 5.97179 19H15.1012C16.1657 19 17.0286 18.1718 17.0286 17.1501V11.4013L17.4627 11.8025C17.8305 12.1334 18.4083 12.1156 18.7531 11.7625C19.098 11.4095 19.0793 10.8549 18.7115 10.5239ZM15.2027 9.71401L10.5366 5.40221L5.87035 9.64249V17.1501C5.87035 17.2039 5.91577 17.2475 5.97179 17.2475H15.1012C15.1573 17.2475 15.2027 17.2039 15.2027 17.1501V9.71401Z" fill="white"/>
</svg>
