<svg width="22" height="22" viewBox="0 0 22 22" fill="none" xmlns="http://www.w3.org/2000/svg">
<g clip-path="url(#clip0_506_1322)">
<path fill-rule="evenodd" clip-rule="evenodd" d="M7.04688 2.75C4.67378 2.75 2.75 4.67378 2.75 7.04688V14.9531C2.75 17.3262 4.67378 19.25 7.04688 19.25H14.9531C17.3262 19.25 19.25 17.3262 19.25 14.9531V7.04688C19.25 4.67378 17.3262 2.75 14.9531 2.75H7.04688ZM4.46875 7.04688C4.46875 5.62302 5.62302 4.46875 7.04688 4.46875H14.9531C16.377 4.46875 17.5312 5.62302 17.5312 7.04688V14.9531C17.5312 16.377 16.377 17.5312 14.9531 17.5312H7.04688C5.62302 17.5312 4.46875 16.377 4.46875 14.9531V7.04688ZM10.6675 15H11.9673V7.15283H11.8008L8.75 8.27539V9.37646L10.6675 8.72119V15Z" fill="white"/>
</g>
<defs>
<clipPath id="clip0_506_1322">
<rect width="22" height="22" fill="white"/>
</clipPath>
</defs>
</svg>
