<svg width="10" height="14" viewBox="0 0 10 14" fill="none" xmlns="http://www.w3.org/2000/svg">
<path d="M8.75 4.83333H8.125V3.59524C8.125 1.88667 6.725 0.5 5 0.5C3.275 0.5 1.875 1.88667 1.875 3.59524V4.83333H1.25C0.5625 4.83333 0 5.39048 0 6.07143V12.2619C0 12.9429 0.5625 13.5 1.25 13.5H8.75C9.4375 13.5 10 12.9429 10 12.2619V6.07143C10 5.39048 9.4375 4.83333 8.75 4.83333ZM3.125 4.83333V3.59524C3.125 2.56762 3.9625 1.7381 5 1.7381C6.0375 1.7381 6.875 2.56762 6.875 3.59524V4.83333H3.125Z" fill="white"/>
</svg>
