<svg width="350" height="734" viewBox="0 0 350 734" fill="none" xmlns="http://www.w3.org/2000/svg">
<g filter="url(#filter0_d_707_192)">
<path d="M4 66.64C4 50.2309 4 42.0263 5.94561 35.3294C10.6256 19.2207 23.2207 6.62562 39.3294 1.94561C46.0263 0 54.2308 0 70.64 0H279.36C295.769 0 303.974 0 310.671 1.94561C326.779 6.62562 339.374 19.2207 344.054 35.3294C346 42.0263 346 50.2308 346 66.64V659.36C346 675.769 346 683.974 344.054 690.671C339.374 706.779 326.779 719.374 310.671 724.054C303.974 726 295.769 726 279.36 726H70.64C54.2309 726 46.0263 726 39.3294 724.054C23.2207 719.374 10.6256 706.779 5.94561 690.671C4 683.974 4 675.769 4 659.36V66.64Z" fill="#101012"/>
<path d="M18 93.52C18 82.8038 18 77.4457 19.2706 73.0723C22.3269 62.5523 30.5523 54.3269 41.0723 51.2706C45.4457 50 50.8038 50 61.52 50H288.48C299.196 50 304.554 50 308.928 51.2706C319.448 54.3269 327.673 62.5523 330.729 73.0723C332 77.4457 332 82.8038 332 93.52V654.48C332 665.196 332 670.554 330.729 674.928C327.673 685.448 319.448 693.673 308.928 696.729C304.554 698 299.196 698 288.48 698H61.52C50.8038 698 45.4457 698 41.0723 696.729C30.5523 693.673 22.3269 685.448 19.2706 674.928C18 670.554 18 665.196 18 654.48V93.52Z" fill="#1B1B1D"/>
<path d="M105 32C105 35.3137 102.314 38 99 38C95.6863 38 93 35.3137 93 32C93 28.6863 95.6863 26 99 26C102.314 26 105 28.6863 105 32Z" fill="#242426"/>
<path d="M104 32C104 34.7614 101.761 37 99 37C96.2386 37 94 34.7614 94 32C94 29.2386 96.2386 27 99 27C101.761 27 104 29.2386 104 32Z" fill="#4D4D59"/>
<path d="M96 27.9996C94.7856 28.9118 94 30.3642 94 32C94 33.6358 94.7856 35.0882 96 36.0004C97.2144 35.0882 98 33.6358 98 32C98 30.3642 97.2144 28.9118 96 27.9996Z" fill="#9C9CA8"/>
<path d="M102 27.9996C100.786 28.9118 100 30.3642 100 32C100 33.6358 100.786 35.0882 102 36.0004C103.214 35.0882 104 33.6358 104 32C104 30.3642 103.214 28.9118 102 27.9996Z" fill="#9C9CA8"/>
<path d="M99 30.5C99 31.3284 98.3284 32 97.5 32C96.6716 32 96 31.3284 96 30.5C96 29.6716 96.6716 29 97.5 29C98.3284 29 99 29.6716 99 30.5Z" fill="#9C9CA8"/>
</g>
<defs>
<filter id="filter0_d_707_192" x="0" y="0" width="350" height="734" filterUnits="userSpaceOnUse" color-interpolation-filters="sRGB">
<feFlood flood-opacity="0" result="BackgroundImageFix"/>
<feColorMatrix in="SourceAlpha" type="matrix" values="0 0 0 0 0 0 0 0 0 0 0 0 0 0 0 0 0 0 127 0" result="hardAlpha"/>
<feOffset dy="4"/>
<feGaussianBlur stdDeviation="2"/>
<feComposite in2="hardAlpha" operator="out"/>
<feColorMatrix type="matrix" values="0 0 0 0 0 0 0 0 0 0 0 0 0 0 0 0 0 0 0.25 0"/>
<feBlend mode="normal" in2="BackgroundImageFix" result="effect1_dropShadow_707_192"/>
<feBlend mode="normal" in="SourceGraphic" in2="effect1_dropShadow_707_192" result="shape"/>
</filter>
</defs>
</svg>
