<svg width="345" height="726" viewBox="0 0 345 726" fill="none" xmlns="http://www.w3.org/2000/svg">
<mask id="path-1-inside-1_703_166" fill="white">
<path d="M0 66.64C0 50.2309 0 42.0263 1.94561 35.3294C6.62562 19.2208 19.2208 6.62562 35.3294 1.94561C42.0263 0 50.2308 0 66.64 0H275.36C291.769 0 299.974 0 306.671 1.94561C322.779 6.62562 335.374 19.2208 340.054 35.3294C342 42.0263 342 50.2308 342 66.64V659.36C342 675.769 342 683.974 340.054 690.671C335.374 706.779 322.779 719.374 306.671 724.054C299.974 726 291.769 726 275.36 726H66.64C50.2309 726 42.0263 726 35.3294 724.054C19.2208 719.374 6.62562 706.779 1.94561 690.671C0 683.974 0 675.769 0 659.36V66.64Z"/>
<path d="M342 165H342.28C342.95 165 343.285 165 343.558 165.079C344.215 165.27 344.73 165.785 344.921 166.442C345 166.715 345 167.05 345 167.72V212.28C345 212.95 345 213.285 344.921 213.558C344.73 214.215 344.215 214.73 343.558 214.921C343.285 215 342.95 215 342.28 215H342V165Z"/>
<path d="M342 262H342.28C342.95 262 343.285 262 343.558 262.079C344.215 262.27 344.73 262.785 344.921 263.442C345 263.715 345 264.05 345 264.72V358.28C345 358.95 345 359.285 344.921 359.558C344.73 360.215 344.215 360.73 343.558 360.921C343.285 361 342.95 361 342.28 361H342V262Z"/>
<path d="M6 67.2C6 52.1304 6 44.5956 7.78678 38.4454C12.0847 23.6517 23.6517 12.0847 38.4454 7.78678C44.5956 6 52.1304 6 67.2 6H274.8C289.87 6 297.404 6 303.555 7.78678C318.348 12.0847 329.915 23.6517 334.213 38.4454C336 44.5956 336 52.1304 336 67.2V658.8C336 673.87 336 681.404 334.213 687.555C329.915 702.348 318.348 713.915 303.555 718.213C297.404 720 289.87 720 274.8 720H67.2C52.1304 720 44.5956 720 38.4454 718.213C23.6517 713.915 12.0847 702.348 7.78678 687.555C6 681.404 6 673.87 6 658.8V67.2Z"/>
<path d="M14 93.52C14 82.8038 14 77.4457 15.2706 73.0723C18.3269 62.5523 26.5523 54.3269 37.0723 51.2706C41.4457 50 46.8038 50 57.52 50H284.48C295.196 50 300.554 50 304.928 51.2706C315.448 54.3269 323.673 62.5523 326.729 73.0723C328 77.4457 328 82.8038 328 93.52V654.48C328 665.196 328 670.554 326.729 674.928C323.673 685.448 315.448 693.673 304.928 696.729C300.554 698 295.196 698 284.48 698H57.52C46.8038 698 41.4457 698 37.0723 696.729C26.5523 693.673 18.3269 685.448 15.2706 674.928C14 670.554 14 665.196 14 654.48V93.52Z"/>
<path d="M101 32C101 35.3137 98.3137 38 95 38C91.6863 38 89 35.3137 89 32C89 28.6863 91.6863 26 95 26C98.3137 26 101 28.6863 101 32Z"/>
<path d="M100 32C100 34.7614 97.7614 37 95 37C92.2386 37 90 34.7614 90 32C90 29.2386 92.2386 27 95 27C97.7614 27 100 29.2386 100 32Z"/>
<path d="M92 27.9996C90.7856 28.9118 90 30.3642 90 32C90 33.6358 90.7856 35.0882 92 36.0004C93.2144 35.0882 94 33.6358 94 32C94 30.3642 93.2144 28.9118 92 27.9996Z"/>
<path d="M98 27.9996C96.7856 28.9118 96 30.3642 96 32C96 33.6358 96.7856 35.0882 98 36.0004C99.2144 35.0882 100 33.6358 100 32C100 30.3642 99.2144 28.9118 98 27.9996Z"/>
<path d="M95 30.5C95 31.3284 94.3284 32 93.5 32C92.6716 32 92 31.3284 92 30.5C92 29.6716 92.6716 29 93.5 29C94.3284 29 95 29.6716 95 30.5Z"/>
<path d="M152 32C152 30.3431 153.343 29 155 29H187C188.657 29 190 30.3431 190 32C190 33.6569 188.657 35 187 35H155C153.343 35 152 33.6569 152 32Z"/>
</mask>
<path d="M0 66.64C0 50.2309 0 42.0263 1.94561 35.3294C6.62562 19.2208 19.2208 6.62562 35.3294 1.94561C42.0263 0 50.2308 0 66.64 0H275.36C291.769 0 299.974 0 306.671 1.94561C322.779 6.62562 335.374 19.2208 340.054 35.3294C342 42.0263 342 50.2308 342 66.64V659.36C342 675.769 342 683.974 340.054 690.671C335.374 706.779 322.779 719.374 306.671 724.054C299.974 726 291.769 726 275.36 726H66.64C50.2309 726 42.0263 726 35.3294 724.054C19.2208 719.374 6.62562 706.779 1.94561 690.671C0 683.974 0 675.769 0 659.36V66.64Z" fill="#101012"/>
<path d="M342 165H342.28C342.95 165 343.285 165 343.558 165.079C344.215 165.27 344.73 165.785 344.921 166.442C345 166.715 345 167.05 345 167.72V212.28C345 212.95 345 213.285 344.921 213.558C344.73 214.215 344.215 214.73 343.558 214.921C343.285 215 342.95 215 342.28 215H342V165Z" fill="#E37D67"/>
<path d="M342 262H342.28C342.95 262 343.285 262 343.558 262.079C344.215 262.27 344.73 262.785 344.921 263.442C345 263.715 345 264.05 345 264.72V358.28C345 358.95 345 359.285 344.921 359.558C344.73 360.215 344.215 360.73 343.558 360.921C343.285 361 342.95 361 342.28 361H342V262Z" fill="#101012"/>
<path d="M6 67.2C6 52.1304 6 44.5956 7.78678 38.4454C12.0847 23.6517 23.6517 12.0847 38.4454 7.78678C44.5956 6 52.1304 6 67.2 6H274.8C289.87 6 297.404 6 303.555 7.78678C318.348 12.0847 329.915 23.6517 334.213 38.4454C336 44.5956 336 52.1304 336 67.2V658.8C336 673.87 336 681.404 334.213 687.555C329.915 702.348 318.348 713.915 303.555 718.213C297.404 720 289.87 720 274.8 720H67.2C52.1304 720 44.5956 720 38.4454 718.213C23.6517 713.915 12.0847 702.348 7.78678 687.555C6 681.404 6 673.87 6 658.8V67.2Z" fill="#101012"/>
<path d="M14 93.52C14 82.8038 14 77.4457 15.2706 73.0723C18.3269 62.5523 26.5523 54.3269 37.0723 51.2706C41.4457 50 46.8038 50 57.52 50H284.48C295.196 50 300.554 50 304.928 51.2706C315.448 54.3269 323.673 62.5523 326.729 73.0723C328 77.4457 328 82.8038 328 93.52V654.48C328 665.196 328 670.554 326.729 674.928C323.673 685.448 315.448 693.673 304.928 696.729C300.554 698 295.196 698 284.48 698H57.52C46.8038 698 41.4457 698 37.0723 696.729C26.5523 693.673 18.3269 685.448 15.2706 674.928C14 670.554 14 665.196 14 654.48V93.52Z" fill="#1B1B1D"/>
<path d="M101 32C101 35.3137 98.3137 38 95 38C91.6863 38 89 35.3137 89 32C89 28.6863 91.6863 26 95 26C98.3137 26 101 28.6863 101 32Z" fill="#242426"/>
<path d="M100 32C100 34.7614 97.7614 37 95 37C92.2386 37 90 34.7614 90 32C90 29.2386 92.2386 27 95 27C97.7614 27 100 29.2386 100 32Z" fill="#4D4D59"/>
<path d="M92 27.9996C90.7856 28.9118 90 30.3642 90 32C90 33.6358 90.7856 35.0882 92 36.0004C93.2144 35.0882 94 33.6358 94 32C94 30.3642 93.2144 28.9118 92 27.9996Z" fill="#242426"/>
<path d="M98 27.9996C96.7856 28.9118 96 30.3642 96 32C96 33.6358 96.7856 35.0882 98 36.0004C99.2144 35.0882 100 33.6358 100 32C100 30.3642 99.2144 28.9118 98 27.9996Z" fill="#242426"/>
<path d="M95 30.5C95 31.3284 94.3284 32 93.5 32C92.6716 32 92 31.3284 92 30.5C92 29.6716 92.6716 29 93.5 29C94.3284 29 95 29.6716 95 30.5Z" fill="#9C9CA8"/>
<path d="M152 32C152 30.3431 153.343 29 155 29H187C188.657 29 190 30.3431 190 32C190 33.6569 188.657 35 187 35H155C153.343 35 152 33.6569 152 32Z" fill="#242426"/>
<path d="M1.94561 35.3294L0.985316 35.0504L0.985316 35.0504L1.94561 35.3294ZM35.3294 1.94561L35.0504 0.985316L35.0504 0.985316L35.3294 1.94561ZM306.671 1.94561L306.95 0.985316L306.95 0.985316L306.671 1.94561ZM340.054 35.3294L339.094 35.6084L339.094 35.6084L340.054 35.3294ZM340.054 690.671L339.094 690.392L339.094 690.392L340.054 690.671ZM306.671 724.054L306.392 723.094L306.392 723.094L306.671 724.054ZM35.3294 724.054L35.6084 723.094L35.6084 723.094L35.3294 724.054ZM1.94561 690.671L0.985316 690.95L0.985316 690.95L1.94561 690.671ZM342 165V164H341V165H342ZM343.558 165.079L343.279 166.04L343.279 166.04L343.558 165.079ZM344.921 166.442L343.96 166.721L343.96 166.721L344.921 166.442ZM344.921 213.558L345.881 213.837L345.881 213.837L344.921 213.558ZM343.558 214.921L343.279 213.96L343.279 213.96L343.558 214.921ZM342 215H341V216H342V215ZM342 262V261H341V262H342ZM343.558 262.079L343.279 263.04L343.279 263.04L343.558 262.079ZM344.921 263.442L343.96 263.721L343.96 263.721L344.921 263.442ZM344.921 359.558L343.96 359.279L343.96 359.279L344.921 359.558ZM343.558 360.921L343.279 359.96L343.279 359.96L343.558 360.921ZM342 361H341V362H342V361ZM7.78678 38.4454L8.74708 38.7244L8.74708 38.7244L7.78678 38.4454ZM38.4454 7.78678L38.7244 8.74708L38.7244 8.74708L38.4454 7.78678ZM303.555 7.78678L303.276 8.74708L303.276 8.74708L303.555 7.78678ZM334.213 38.4454L335.174 38.1664L335.174 38.1664L334.213 38.4454ZM334.213 687.555L335.174 687.834L335.174 687.834L334.213 687.555ZM303.555 718.213L303.276 717.253L303.276 717.253L303.555 718.213ZM38.4454 718.213L38.7244 717.253L38.7244 717.253L38.4454 718.213ZM7.78678 687.555L6.82649 687.834L6.82649 687.834L7.78678 687.555ZM15.2706 73.0723L16.2309 73.3513L16.2309 73.3513L15.2706 73.0723ZM37.0723 51.2706L37.3513 52.2309L37.3513 52.2309L37.0723 51.2706ZM304.928 51.2706L305.207 50.3103L305.207 50.3103L304.928 51.2706ZM326.729 73.0723L327.69 72.7933L327.69 72.7933L326.729 73.0723ZM326.729 674.928L327.69 675.207L327.69 675.207L326.729 674.928ZM304.928 696.729L304.649 695.769L304.649 695.769L304.928 696.729ZM37.0723 696.729L37.3513 695.769L37.3513 695.769L37.0723 696.729ZM15.2706 674.928L14.3103 675.207L14.3103 675.207L15.2706 674.928ZM92 27.9996L92.6006 27.2001L92 26.749L91.3994 27.2001L92 27.9996ZM92 36.0004L91.3994 36.7999L92 37.251L92.6006 36.7999L92 36.0004ZM98 27.9996L98.6006 27.2001L98 26.749L97.3994 27.2001L98 27.9996ZM98 36.0004L97.3994 36.7999L98 37.251L98.6006 36.7999L98 36.0004ZM1 66.64C1 50.1611 1.01001 42.1341 2.9059 35.6084L0.985316 35.0504C-1.01001 41.9184 -1 50.3006 -1 66.64H1ZM2.9059 35.6084C7.4904 19.8285 19.8285 7.4904 35.6084 2.9059L35.0504 0.985316C18.613 5.76083 5.76083 18.613 0.985316 35.0504L2.9059 35.6084ZM35.6084 2.9059C42.1341 1.01001 50.1611 1 66.64 1V-1C50.3006 -1 41.9184 -1.01001 35.0504 0.985316L35.6084 2.9059ZM66.64 1H275.36V-1H66.64V1ZM275.36 1C291.839 1 299.866 1.01001 306.392 2.9059L306.95 0.985316C300.082 -1.01001 291.699 -1 275.36 -1V1ZM306.392 2.9059C322.171 7.4904 334.51 19.8285 339.094 35.6084L341.015 35.0504C336.239 18.613 323.387 5.76083 306.95 0.985316L306.392 2.9059ZM339.094 35.6084C340.99 42.1341 341 50.1611 341 66.64H343C343 50.3006 343.01 41.9184 341.015 35.0504L339.094 35.6084ZM341 66.64V659.36H343V66.64H341ZM341 659.36C341 675.839 340.99 683.866 339.094 690.392L341.015 690.95C343.01 684.082 343 675.699 343 659.36H341ZM339.094 690.392C334.51 706.171 322.171 718.51 306.392 723.094L306.95 725.015C323.387 720.239 336.239 707.387 341.015 690.95L339.094 690.392ZM306.392 723.094C299.866 724.99 291.839 725 275.36 725V727C291.699 727 300.082 727.01 306.95 725.015L306.392 723.094ZM275.36 725H66.64V727H275.36V725ZM66.64 725C50.1611 725 42.1341 724.99 35.6084 723.094L35.0504 725.015C41.9184 727.01 50.3006 727 66.64 727V725ZM35.6084 723.094C19.8285 718.51 7.4904 706.171 2.9059 690.392L0.985316 690.95C5.76083 707.387 18.613 720.239 35.0504 725.015L35.6084 723.094ZM2.9059 690.392C1.01001 683.866 1 675.839 1 659.36H-1C-1 675.699 -1.01001 684.082 0.985316 690.95L2.9059 690.392ZM1 659.36V66.64H-1V659.36H1ZM342 166H342.28V164H342V166ZM342.28 166C343.02 166 343.177 166.01 343.279 166.04L343.837 164.119C343.393 163.99 342.88 164 342.28 164V166ZM343.279 166.04C343.608 166.135 343.865 166.392 343.96 166.721L345.881 166.163C345.594 165.177 344.823 164.406 343.837 164.119L343.279 166.04ZM343.96 166.721C343.99 166.823 344 166.98 344 167.72H346C346 167.12 346.01 166.607 345.881 166.163L343.96 166.721ZM344 167.72V212.28H346V167.72H344ZM344 212.28C344 213.02 343.99 213.177 343.96 213.279L345.881 213.837C346.01 213.393 346 212.88 346 212.28H344ZM343.96 213.279C343.865 213.608 343.608 213.865 343.279 213.96L343.837 215.881C344.823 215.594 345.594 214.823 345.881 213.837L343.96 213.279ZM343.279 213.96C343.177 213.99 343.02 214 342.28 214V216C342.88 216 343.393 216.01 343.837 215.881L343.279 213.96ZM342.28 214H342V216H342.28V214ZM343 215V165H341V215H343ZM342 263H342.28V261H342V263ZM342.28 263C343.02 263 343.177 263.01 343.279 263.04L343.837 261.119C343.393 260.99 342.88 261 342.28 261V263ZM343.279 263.04C343.608 263.135 343.865 263.392 343.96 263.721L345.881 263.163C345.594 262.177 344.823 261.406 343.837 261.119L343.279 263.04ZM343.96 263.721C343.99 263.823 344 263.98 344 264.72H346C346 264.12 346.01 263.607 345.881 263.163L343.96 263.721ZM344 264.72V358.28H346V264.72H344ZM344 358.28C344 359.02 343.99 359.177 343.96 359.279L345.881 359.837C346.01 359.393 346 358.88 346 358.28H344ZM343.96 359.279C343.865 359.608 343.608 359.865 343.279 359.96L343.837 361.881C344.823 361.594 345.594 360.823 345.881 359.837L343.96 359.279ZM343.279 359.96C343.177 359.99 343.02 360 342.28 360V362C342.88 362 343.393 362.01 343.837 361.881L343.279 359.96ZM342.28 360H342V362H342.28V360ZM343 361V262H341V361H343ZM7 67.2C7 52.0606 7.01001 44.7034 8.74708 38.7244L6.82649 38.1664C4.98999 44.4877 5 52.2001 5 67.2H7ZM8.74708 38.7244C12.9495 24.2595 24.2595 12.9495 38.7244 8.74708L38.1664 6.82649C23.044 11.22 11.22 23.044 6.82649 38.1664L8.74708 38.7244ZM38.7244 8.74708C44.7034 7.01001 52.0606 7 67.2 7V5C52.2001 5 44.4877 4.98999 38.1664 6.82649L38.7244 8.74708ZM67.2 7H274.8V5H67.2V7ZM274.8 7C289.939 7 297.297 7.01001 303.276 8.74708L303.834 6.82649C297.512 4.98999 289.8 5 274.8 5V7ZM303.276 8.74708C317.741 12.9495 329.05 24.2595 333.253 38.7244L335.174 38.1664C330.78 23.044 318.956 11.22 303.834 6.82649L303.276 8.74708ZM333.253 38.7244C334.99 44.7034 335 52.0606 335 67.2H337C337 52.2001 337.01 44.4877 335.174 38.1664L333.253 38.7244ZM335 67.2V658.8H337V67.2H335ZM335 658.8C335 673.939 334.99 681.297 333.253 687.276L335.174 687.834C337.01 681.512 337 673.8 337 658.8H335ZM333.253 687.276C329.05 701.741 317.741 713.05 303.276 717.253L303.834 719.173C318.956 714.78 330.78 702.956 335.174 687.834L333.253 687.276ZM303.276 717.253C297.297 718.99 289.939 719 274.8 719V721C289.8 721 297.512 721.01 303.834 719.173L303.276 717.253ZM274.8 719H67.2V721H274.8V719ZM67.2 719C52.0606 719 44.7034 718.99 38.7244 717.253L38.1664 719.173C44.4877 721.01 52.2001 721 67.2 721V719ZM38.7244 717.253C24.2594 713.05 12.9495 701.741 8.74708 687.276L6.82649 687.834C11.22 702.956 23.044 714.78 38.1664 719.173L38.7244 717.253ZM8.74708 687.276C7.01001 681.297 7 673.939 7 658.8H5C5 673.8 4.98999 681.512 6.82649 687.834L8.74708 687.276ZM7 658.8V67.2H5V658.8H7ZM15 93.52C15 82.7341 15.01 77.5536 16.2309 73.3513L14.3103 72.7933C12.99 77.3379 13 82.8736 13 93.52H15ZM16.2309 73.3513C19.1917 63.1601 27.1601 55.1917 37.3513 52.2309L36.7933 50.3103C25.9446 53.4621 17.4621 61.9446 14.3103 72.7933L16.2309 73.3513ZM37.3513 52.2309C41.5536 51.01 46.7341 51 57.52 51V49C46.8735 49 41.3379 48.99 36.7933 50.3103L37.3513 52.2309ZM57.52 51H284.48V49H57.52V51ZM284.48 51C295.266 51 300.446 51.01 304.649 52.2309L305.207 50.3103C300.662 48.99 295.126 49 284.48 49V51ZM304.649 52.2309C314.84 55.1917 322.808 63.1601 325.769 73.3513L327.69 72.7933C324.538 61.9446 316.055 53.4621 305.207 50.3103L304.649 52.2309ZM325.769 73.3513C326.99 77.5536 327 82.7341 327 93.52H329C329 82.8735 329.01 77.3379 327.69 72.7933L325.769 73.3513ZM327 93.52V654.48H329V93.52H327ZM327 654.48C327 665.266 326.99 670.446 325.769 674.649L327.69 675.207C329.01 670.662 329 665.126 329 654.48H327ZM325.769 674.649C322.808 684.84 314.84 692.808 304.649 695.769L305.207 697.69C316.055 694.538 324.538 686.055 327.69 675.207L325.769 674.649ZM304.649 695.769C300.446 696.99 295.266 697 284.48 697V699C295.126 699 300.662 699.01 305.207 697.69L304.649 695.769ZM284.48 697H57.52V699H284.48V697ZM57.52 697C46.7341 697 41.5536 696.99 37.3513 695.769L36.7933 697.69C41.3379 699.01 46.8735 699 57.52 699V697ZM37.3513 695.769C27.1601 692.808 19.1917 684.84 16.2309 674.649L14.3103 675.207C17.4621 686.055 25.9446 694.538 36.7933 697.69L37.3513 695.769ZM16.2309 674.649C15.01 670.446 15 665.266 15 654.48H13C13 665.126 12.99 670.662 14.3103 675.207L16.2309 674.649ZM15 654.48V93.52H13V654.48H15ZM100 32C100 34.7614 97.7614 37 95 37V39C98.866 39 102 35.866 102 32H100ZM95 37C92.2386 37 90 34.7614 90 32H88C88 35.866 91.134 39 95 39V37ZM90 32C90 29.2386 92.2386 27 95 27V25C91.134 25 88 28.134 88 32H90ZM95 27C97.7614 27 100 29.2386 100 32H102C102 28.134 98.866 25 95 25V27ZM99 32C99 34.2091 97.2091 36 95 36V38C98.3137 38 101 35.3137 101 32H99ZM95 36C92.7909 36 91 34.2091 91 32H89C89 35.3137 91.6863 38 95 38V36ZM91 32C91 29.7909 92.7909 28 95 28V26C91.6863 26 89 28.6863 89 32H91ZM95 28C97.2091 28 99 29.7909 99 32H101C101 28.6863 98.3137 26 95 26V28ZM91 32C91 30.692 91.6268 29.5307 92.6006 28.7992L91.3994 27.2001C89.9443 28.293 89 30.0364 89 32H91ZM92.6006 35.2008C91.6268 34.4693 91 33.308 91 32H89C89 33.9636 89.9443 35.707 91.3994 36.7999L92.6006 35.2008ZM92.6006 36.7999C94.0557 35.707 95 33.9636 95 32H93C93 33.308 92.3732 34.4693 91.3994 35.2008L92.6006 36.7999ZM95 32C95 30.0364 94.0557 28.293 92.6006 27.2001L91.3994 28.7992C92.3732 29.5307 93 30.692 93 32H95ZM97.3994 27.2001C95.9443 28.293 95 30.0364 95 32H97C97 30.692 97.6268 29.5307 98.6006 28.7992L97.3994 27.2001ZM95 32C95 33.9636 95.9443 35.707 97.3994 36.7999L98.6006 35.2008C97.6268 34.4693 97 33.308 97 32H95ZM99 32C99 33.308 98.3732 34.4693 97.3994 35.2008L98.6006 36.7999C100.056 35.707 101 33.9636 101 32H99ZM97.3994 28.7992C98.3732 29.5307 99 30.692 99 32H101C101 30.0364 100.056 28.293 98.6006 27.2001L97.3994 28.7992ZM94 30.5C94 30.7761 93.7761 31 93.5 31V33C94.8807 33 96 31.8807 96 30.5H94ZM93.5 31C93.2239 31 93 30.7761 93 30.5H91C91 31.8807 92.1193 33 93.5 33V31ZM93 30.5C93 30.2239 93.2239 30 93.5 30V28C92.1193 28 91 29.1193 91 30.5H93ZM93.5 30C93.7761 30 94 30.2239 94 30.5H96C96 29.1193 94.8807 28 93.5 28V30ZM153 32C153 30.8954 153.895 30 155 30V28C152.791 28 151 29.7909 151 32H153ZM155 30H187V28H155V30ZM187 30C188.105 30 189 30.8954 189 32H191C191 29.7909 189.209 28 187 28V30ZM189 32C189 33.1046 188.105 34 187 34V36C189.209 36 191 34.2091 191 32H189ZM187 34H155V36H187V34ZM155 34C153.895 34 153 33.1046 153 32H151C151 34.2091 152.791 36 155 36V34Z" fill="#363636" mask="url(#path-1-inside-1_703_166)"/>
</svg>
